<svg width="55" height="55" viewBox="0 0 55 55" fill="none" xmlns="http://www.w3.org/2000/svg">
<path d="M54.9708 30.3769C54.9708 30.0363 54.7874 29.7221 54.4908 29.5545L54.4905 29.5544C54.4896 29.5537 54.4887 29.5532 54.4878 29.5527C54.433 29.5165 54.3748 29.4851 54.3136 29.4593L41.7651 23.8515V6.97556C41.7651 6.9674 41.765 6.95934 41.7647 6.95128C41.7646 6.9486 41.7646 6.94602 41.7645 6.94333C41.7644 6.93796 41.7642 6.93248 41.7639 6.92711C41.7638 6.92389 41.7637 6.92067 41.7635 6.91744C41.7631 6.91057 41.7627 6.90359 41.7622 6.89671C41.7618 6.89188 41.7614 6.88715 41.761 6.88243C41.7608 6.87995 41.7606 6.87738 41.7603 6.87491C41.7402 6.65985 41.6568 6.46316 41.5288 6.30374C41.527 6.30149 41.5252 6.29923 41.5234 6.29698C41.5208 6.29386 41.5182 6.29074 41.5156 6.28763C41.5129 6.28441 41.5103 6.28118 41.5075 6.27796C41.5054 6.2756 41.5035 6.27323 41.5014 6.27098C41.4966 6.26539 41.4917 6.25981 41.4866 6.25433C41.4857 6.25325 41.4847 6.25218 41.4836 6.25111C41.4791 6.24616 41.4745 6.24122 41.4699 6.23639C41.4688 6.23521 41.4677 6.23413 41.4665 6.23295C41.4614 6.22758 41.4562 6.22221 41.451 6.21695C41.4506 6.21662 41.4503 6.2163 41.45 6.21598C41.4441 6.21007 41.4381 6.20416 41.4319 6.19836C41.4317 6.19815 41.4315 6.19804 41.4314 6.19782C41.4258 6.19256 41.4202 6.1873 41.4145 6.18214C41.4135 6.18117 41.4124 6.18021 41.4113 6.17924C41.4062 6.17462 41.4009 6.16989 41.3956 6.16538C41.3948 6.16463 41.3939 6.16377 41.393 6.16302C41.387 6.15797 41.3811 6.15292 41.3751 6.14798C41.3734 6.14658 41.3717 6.14519 41.3701 6.1439C41.3661 6.14068 41.362 6.13735 41.3579 6.13412C41.3552 6.13197 41.3525 6.12983 41.3498 6.12768C41.3467 6.12531 41.3436 6.12295 41.3405 6.12059C41.269 6.06613 41.1905 6.02047 41.1063 5.98513L27.9237 0.0934572C27.6449 -0.0311524 27.326 -0.0311524 27.0472 0.0934572L13.8641 5.98491C13.7801 6.02026 13.7016 6.06591 13.63 6.12037C13.6269 6.12274 13.6238 6.1251 13.6208 6.12746C13.618 6.12961 13.6153 6.13176 13.6126 6.13391C13.6086 6.13713 13.6046 6.14035 13.6005 6.14368C13.5988 6.14508 13.5971 6.14637 13.5954 6.14777C13.5894 6.15271 13.5835 6.15776 13.5776 6.1628C13.5768 6.16356 13.5759 6.16431 13.5749 6.16517C13.5697 6.16968 13.5644 6.17441 13.5592 6.17903C13.5582 6.17999 13.5571 6.18096 13.556 6.18193C13.5503 6.18708 13.5447 6.19235 13.5392 6.19761C13.5389 6.19782 13.5388 6.19793 13.5386 6.19815C13.5325 6.20395 13.5265 6.20986 13.5206 6.21576C13.5203 6.21609 13.5199 6.21641 13.5196 6.21673C13.5143 6.22199 13.5092 6.22737 13.504 6.23274C13.503 6.23392 13.5018 6.23499 13.5007 6.23617C13.4961 6.24101 13.4915 6.24595 13.4869 6.25089C13.486 6.25197 13.4849 6.25304 13.4839 6.25411C13.479 6.25959 13.4741 6.26518 13.4691 6.27076C13.4671 6.27302 13.4651 6.27538 13.4631 6.27775C13.4604 6.28097 13.4576 6.28419 13.4549 6.28741C13.4524 6.29053 13.4498 6.29364 13.4472 6.29676C13.4454 6.29902 13.4436 6.30127 13.4418 6.30353C13.3138 6.46294 13.2303 6.65952 13.2103 6.87469C13.2101 6.87716 13.2099 6.87974 13.2097 6.88221C13.2093 6.88704 13.2088 6.89177 13.2085 6.8965C13.208 6.90337 13.2075 6.91036 13.2072 6.91723C13.207 6.92045 13.2069 6.92368 13.2068 6.9269C13.2066 6.93227 13.2064 6.93775 13.2061 6.94312C13.206 6.9458 13.206 6.94838 13.2059 6.95107C13.2057 6.95913 13.2056 6.96729 13.2056 6.97535V23.8511L0.657101 29.4592C0.656779 29.4593 0.656456 29.4594 0.656134 29.4596C0.259317 29.626 0 30.0139 0 30.4443V48.0214C0 48.4451 0.249004 48.8292 0.635939 49.0021C0.635939 49.0021 13.8431 54.9043 13.8438 54.9046L13.85 54.9074C14.122 55.0303 14.4338 55.0309 14.7062 54.9089L14.7181 54.9035L27.4854 49.198L40.2528 54.9037C40.2529 54.9039 40.2694 54.9101 40.2961 54.9202C40.5652 55.0225 40.8644 55.0168 41.1291 54.9037C41.1292 54.9037 41.1292 54.9036 41.1292 54.9036L54.3348 49.0021C54.7217 48.8292 54.9708 48.4451 54.9708 48.0214V30.3769ZM40.6911 35.1744L30.1183 30.4493L40.6911 25.7244L51.2639 30.4493L40.6911 35.1744ZM27.4854 17.1404C28.0786 17.1404 28.5596 16.6594 28.5596 16.0663V13.5737L39.6168 8.63233V23.8512L28.5596 28.7928V25.7781C28.5596 25.1848 28.0786 24.7039 27.4854 24.7039C26.8923 24.7039 26.4113 25.1848 26.4113 25.7781V28.7928L15.3541 23.8512V8.63233L26.4113 13.5737V16.0663C26.4112 16.6596 26.8923 17.1404 27.4854 17.1404ZM27.4854 2.25071L38.0584 6.97578L27.4854 11.7006L16.9125 6.97567L27.4854 2.25071ZM14.2798 25.7244L24.8527 30.4493L14.2798 35.1744L3.70703 30.4493L14.2798 25.7244ZM2.14833 32.106L13.2347 37.0605C13.2157 37.1405 13.2056 37.2239 13.2056 37.3097V52.2664L2.14833 47.3249V32.106ZM15.3248 37.0604L26.4112 32.106V47.325L15.3539 52.2665V37.3096C15.3539 37.2239 15.3438 37.1404 15.3248 37.0604ZM28.5596 32.106L39.6459 37.0605C39.6269 37.1405 39.6168 37.2239 39.6168 37.3097V52.2664L28.5596 47.3249V32.106ZM41.7652 52.2664V37.3096C41.7652 37.2238 41.7551 37.1403 41.7361 37.0604L52.8224 32.1059V47.3249L41.7652 52.2664Z" fill="#F7992B"/>
<path d="M27.4854 21.9763C27.0308 21.9763 26.614 21.6783 26.4682 21.2473C26.3307 20.8413 26.4542 20.3775 26.7771 20.0948C27.1291 19.7866 27.6548 19.7448 28.0522 19.9906C28.4331 20.2263 28.6301 20.6923 28.5343 21.1297C28.4274 21.6175 27.9856 21.9763 27.4854 21.9763Z" fill="#F7992B"/>
</svg>
