<svg width="52" height="50" viewBox="0 0 52 50" fill="none" xmlns="http://www.w3.org/2000/svg">
<path d="M43.6887 23.4945C40.0867 18.3543 35.5714 14.9401 30.6389 13.541V9.3737H41.0101C43.6163 9.3737 45.924 7.62013 46.6219 5.10938L47.5617 1.72982C47.6759 1.31902 47.5914 0.878349 47.3334 0.538906C47.0754 0.199464 46.6735 0 46.2472 0H4.75861C4.33226 0 3.93033 0.199327 3.67234 0.538906C3.41435 0.878349 3.32989 1.31902 3.44409 1.72982L4.3837 5.10938C5.08182 7.62013 7.38943 9.3737 9.99555 9.3737H20.3666V13.541C15.4341 14.9401 10.9188 18.3543 7.31698 23.4945C2.59848 30.2281 0 39.1568 0 48.6357C0 49.3892 0.610806 50 1.36432 50H49.6413C50.3947 50 51.0056 49.3892 51.0056 48.6357C51.0056 39.1568 48.407 30.2281 43.6887 23.4945ZM7.01274 4.37851L6.55406 2.72878H44.4516L43.9929 4.37851C43.6219 5.71309 42.3953 6.64506 41.0101 6.64506H9.99569C8.61036 6.64506 7.38383 5.71295 7.01274 4.37851ZM23.0953 9.3737H27.9103V12.9808C27.1152 12.8778 26.3123 12.8238 25.5028 12.8238C24.6934 12.8238 23.8905 12.8778 23.0953 12.981V9.3737ZM2.74774 47.2714C3.24149 29.6585 13.2593 15.5523 25.5028 15.5523C37.7462 15.5523 47.7641 29.6585 48.2579 47.2714H2.74774Z" fill="#F7992B"/>
<path d="M25.5028 18.104C18.1648 18.104 12.195 24.0738 12.195 31.4118C12.195 38.7498 18.1648 44.7197 25.5028 44.7197C32.8408 44.7197 38.8107 38.7498 38.8107 31.4118C38.8107 24.0738 32.8408 18.104 25.5028 18.104ZM25.5028 41.9912C19.6694 41.9912 14.9236 37.2454 14.9236 31.412C14.9236 25.5785 19.6694 20.8328 25.5028 20.8328C31.3362 20.8328 36.082 25.5785 36.082 31.412C36.082 37.2452 31.3362 41.9912 25.5028 41.9912Z" fill="#F7992B"/>
<path d="M25.5028 22.5102C24.7493 22.5102 24.1385 23.121 24.1385 23.8745V31.4118C24.1385 32.1653 24.7493 32.7761 25.5028 32.7761C26.2562 32.7761 26.8671 32.1653 26.8671 31.4118V23.8745C26.8671 23.1211 26.2563 22.5102 25.5028 22.5102Z" fill="#F7992B"/>
</svg>
