<svg width="70" height="50" viewBox="0 0 70 50" fill="none" xmlns="http://www.w3.org/2000/svg">
<path d="M16.2791 36.0465C12.4314 36.0465 9.30235 39.1756 9.30235 43.0233C9.30235 46.871 12.4314 50 16.2791 50C20.1268 50 23.2558 46.871 23.2558 43.0233C23.2558 39.1756 20.1266 36.0465 16.2791 36.0465ZM16.2791 47.6744C13.7139 47.6744 11.628 45.5883 11.628 43.0233C11.628 40.4581 13.714 38.3722 16.2791 38.3722C18.8441 38.3722 20.9302 40.4582 20.9302 43.0233C20.9302 45.5883 18.8441 47.6744 16.2791 47.6744Z" fill="#F7992B"/>
<path d="M55.8139 36.0465C51.9662 36.0465 48.8371 39.1756 48.8371 43.0233C48.8371 46.871 51.9662 50 55.8139 50C59.6615 50 62.7906 46.871 62.7906 43.0233C62.7906 39.1756 59.6615 36.0465 55.8139 36.0465ZM55.8139 47.6744C53.2487 47.6744 51.1627 45.5883 51.1627 43.0233C51.1627 40.4581 53.2488 38.3722 55.8139 38.3722C58.379 38.3722 60.465 40.4582 60.465 43.0233C60.465 45.5883 58.379 47.6744 55.8139 47.6744Z" fill="#F7992B"/>
<path d="M69.5824 29.6036L59.1173 13.3245C58.9034 12.9918 58.5348 12.7907 58.1393 12.7907H45.3488C44.7057 12.7907 44.186 13.3117 44.186 13.9535V43.0231C44.186 43.6662 44.7057 44.1859 45.3488 44.1859H49.9999V41.8603H46.5115V15.1163H57.5045L67.4417 30.5744V41.8605H61.6277V44.186H68.6044C69.2475 44.186 69.7672 43.6663 69.7672 43.0233V30.2325C69.7673 30.0104 69.7034 29.7906 69.5824 29.6036Z" fill="#F7992B"/>
<path d="M51.1627 27.9069V19.7675H60.4651V17.4418H50C49.357 17.4418 48.8373 17.9628 48.8373 18.6046V29.0697C48.8373 29.7127 49.357 30.2324 50 30.2324H67.4418V27.9068H51.1627V27.9069Z" fill="#F7992B"/>
<path d="M45.3488 4.65125H1.16274C0.520938 4.65125 0 5.17218 0 5.81399V43.0233C0 43.6663 0.520938 44.186 1.16274 44.186H10.4651V41.8604H2.32562V6.97673H44.186V41.8604H22.0929V44.186L45.3488 44.1859C45.9918 44.1859 46.5115 43.6663 46.5115 43.0233V5.81399C46.5115 5.17218 45.9918 4.65125 45.3488 4.65125Z" fill="#F7992B"/>
<path d="M8.13947 37.2093H1.16274V39.5349H8.13947V37.2093Z" fill="#F7992B"/>
<path d="M44.186 37.2093H24.4186V39.5349H44.186V37.2093Z" fill="#F7992B"/>
<path d="M68.6044 37.2093H63.9533V39.5349H68.6044V37.2093Z" fill="#F7992B"/>
<path d="M45.3488 9.30235H4.65111V11.628H45.3488V9.30235Z" fill="#F7992B"/>
<path d="M17.4418 41.8604H15.1162V44.186H17.4418V41.8604Z" fill="#F7992B"/>
<path d="M56.9767 41.8604H54.6511V44.186H56.9767V41.8604Z" fill="#F7992B"/>
<path d="M20.9302 0H4.65111V2.32562H20.9302V0Z" fill="#F7992B"/>
<path d="M2.32562 0H0V2.32562H2.32562V0Z" fill="#F7992B"/>
</svg>
