<svg width="50" height="50" viewBox="0 0 50 50" fill="none" xmlns="http://www.w3.org/2000/svg">
<path d="M44.1406 10.9375C40.9039 10.9375 38.2812 13.5593 38.2812 16.7969V18.75H31.2195C33.5728 14.7255 34.7656 11.7073 34.7656 9.76562C34.7656 4.3808 30.3848 0 25 0C19.6152 0 15.2344 4.3808 15.2344 9.76562C15.2344 11.7073 16.4272 14.7259 18.7805 18.75C17.9878 18.75 12.4043 18.75 11.7188 18.75V16.7969C11.7188 13.5658 9.09042 10.9375 5.85938 10.9375C2.6226 10.9375 0 13.5593 0 16.7969V22.2656C0 22.805 0.437164 23.2422 0.976562 23.2422C1.51596 23.2422 1.95312 22.805 1.95312 22.2656V16.7969C1.95312 14.6393 3.7014 12.8906 5.85938 12.8906C8.01315 12.8906 9.76562 14.6431 9.76562 16.7969V39.777C8.72841 38.8474 7.35855 38.2812 5.85938 38.2812C4.35982 38.2812 2.99072 38.8481 1.95312 39.7781V30.0781C1.95312 29.5387 1.51596 29.1016 0.976562 29.1016C0.437164 29.1016 0 29.5387 0 30.0781V44.1406C0 47.4911 2.8923 50 6.13785 50H44.1406C47.3717 50 50 47.3717 50 44.1406V16.7969C50 13.5658 47.3717 10.9375 44.1406 10.9375ZM40.2344 16.7969C40.2344 14.6393 41.9827 12.8906 44.1406 12.8906C46.2944 12.8906 48.0469 14.6431 48.0469 16.7969V39.7503C47.3755 39.1525 46.5672 38.7077 45.6856 38.4804C43.7283 37.9742 41.7145 38.4506 40.2344 39.7724C40.2344 38.9374 40.2344 17.9691 40.2344 16.7969ZM38.2812 30.4688H25.7812C22.5086 27.3525 16.2582 21.3993 15.5277 20.7031H19.9642C22.0963 24.1089 24.1962 26.923 24.218 26.9524C24.4026 27.1988 24.6922 27.3438 25 27.3438C25.3078 27.3438 25.5974 27.1988 25.782 26.9524C25.8038 26.923 27.9041 24.1089 30.0358 20.7031H38.2812V30.4688ZM25 1.95312C29.3079 1.95312 32.8125 5.45769 32.8125 9.76562C32.8125 13.3915 27.0927 21.7762 25 24.7059C22.8745 21.7297 17.1875 13.3583 17.1875 9.76562C17.1875 5.45769 20.6921 1.95312 25 1.95312ZM1.95312 44.1406C1.95312 41.9868 3.7056 40.2344 5.85938 40.2344C8.01315 40.2344 9.76562 41.9868 9.76562 44.1406C9.76562 44.68 10.2028 45.1172 10.7422 45.1172C11.2816 45.1172 11.7188 44.68 11.7188 44.1406V27.8645L21.6309 37.3047L10.3516 48.0469H6.13785C3.94783 48.0469 1.95312 46.41 1.95312 44.1406ZM23.7202 38.0119C23.914 37.8273 24.0234 37.5717 24.0234 37.3047C24.0234 37.0377 23.914 36.7817 23.7202 36.5974L11.7188 25.1675V20.7031H12.6953C12.7621 20.7668 24.2519 31.7097 24.7173 32.1526C24.8989 32.3254 25.14 32.4219 25.3906 32.4219H38.2812V36.3281H30.8594C30.6004 36.3281 30.352 36.4311 30.1689 36.6142L18.7359 48.0469H13.1836L23.7202 38.0119ZM44.1406 48.0469H21.4985L31.2641 38.2812H38.2812V44.1406C38.2812 44.68 38.7184 45.1172 39.2578 45.1172C39.7972 45.1172 40.2344 44.68 40.2344 44.1406C40.2344 41.6149 42.5995 39.7003 45.1973 40.3713C46.7831 40.781 48.0469 42.2455 48.0469 44.1406C48.0469 46.2944 46.2944 48.0469 44.1406 48.0469Z" fill="#F7992B"/>
<path d="M25 14.6484C27.6924 14.6484 29.8828 12.458 29.8828 9.76562C29.8828 7.07321 27.6924 4.88281 25 4.88281C22.3076 4.88281 20.1172 7.07321 20.1172 9.76562C20.1172 12.458 22.3076 14.6484 25 14.6484ZM25 6.83594C26.6155 6.83594 27.9297 8.1501 27.9297 9.76562C27.9297 11.3811 26.6155 12.6953 25 12.6953C23.3845 12.6953 22.0703 11.3811 22.0703 9.76562C22.0703 8.1501 23.3845 6.83594 25 6.83594Z" fill="#F7992B"/>
<path d="M0.976562 27.1484C1.51558 27.1484 1.95312 26.7109 1.95312 26.1719C1.95312 25.6329 1.51558 25.1953 0.976562 25.1953C0.437546 25.1953 0 25.6329 0 26.1719C0 26.7109 0.437546 27.1484 0.976562 27.1484Z" fill="#F7992B"/>
</svg>
