<svg width="50" height="50" viewBox="0 0 50 50" fill="none" xmlns="http://www.w3.org/2000/svg">
<path d="M24.7663 32.6065C23.3663 32.6065 22.2274 33.7455 22.2274 35.1455C22.2274 36.5455 23.3664 37.6845 24.7663 37.6845C26.1662 37.6845 27.3053 36.5455 27.3053 35.1455C27.3053 33.7455 26.1664 32.6065 24.7663 32.6065ZM24.7663 35.7314C24.4432 35.7314 24.1804 35.4686 24.1804 35.1455C24.1804 34.8224 24.4432 34.5596 24.7663 34.5596C25.0895 34.5596 25.3523 34.8224 25.3523 35.1455C25.3523 35.4686 25.0895 35.7314 24.7663 35.7314Z" fill="#F7992B"/>
<path d="M32.6046 29.3701C32.423 29.1885 32.171 29.0839 31.9142 29.0839C31.6573 29.0839 31.4054 29.1884 31.2237 29.3701C31.0411 29.5517 30.9376 29.8036 30.9376 30.0604C30.9376 30.3174 31.0411 30.5693 31.2237 30.7509C31.4054 30.9326 31.6573 31.037 31.9142 31.037C32.171 31.037 32.423 30.9326 32.6046 30.7509C32.7862 30.5693 32.8907 30.3174 32.8907 30.0604C32.8907 29.8036 32.7862 29.5517 32.6046 29.3701Z" fill="#F7992B"/>
<path d="M45.1159 14.0612H44.0631L30.2882 0.286308C29.9068 -0.0950399 29.2884 -0.0950399 28.9071 0.286308L25.3782 3.81531L11.2646 0.0335734C10.7436 -0.106173 10.208 0.203105 10.0685 0.724101L6.49502 14.0612H4.10147C1.83994 14.0612 0 15.9011 0 18.1627C0 18.2169 0.00205078 18.2707 0.00410156 18.3244C0.00185547 18.3513 0 18.3782 0 18.4056V45.1174C0 47.8096 2.19043 50 4.88272 50H39.8426C39.8577 50 39.8726 49.999 39.8877 49.9988H45.1158C47.8081 49.9988 49.9985 47.8085 49.9985 45.1161V18.9438C49.9986 16.2514 47.8082 14.0612 45.1159 14.0612ZM44.2435 16.0142H45.1159C46.7314 16.0142 48.0455 17.3285 48.0455 18.9438V26.7703C48.0455 28.0466 47.0071 29.0849 45.731 29.0849H44.7253V25.1936C44.7253 22.5353 42.5897 20.368 39.9442 20.3135L44.2435 16.0142ZM26.3607 5.595C26.3608 5.5949 26.3609 5.59471 26.3609 5.59461L29.5978 2.35779L42.3679 15.1279L37.2165 20.2793H35.43L37.7667 17.9425C38.1481 17.5611 38.1481 16.9428 37.7667 16.5614C36.9762 15.7709 36.9762 14.4848 37.7667 13.6942C38.1481 13.3129 38.1481 12.6945 37.7667 12.3131L32.4124 6.95897C32.0311 6.57762 31.4127 6.57762 31.0313 6.95897C30.2407 7.74959 28.9545 7.74959 28.1641 6.95897C27.7827 6.57762 27.1643 6.57762 26.783 6.95897L13.4627 20.2794H11.6762L26.3607 5.595ZM23.4867 16.6104C21.2574 16.6104 19.3897 18.1846 18.9341 20.2794H16.2246L27.5592 8.94481C28.8103 9.69051 30.3851 9.69051 31.6361 8.94481L35.7808 13.0894C35.0352 14.3404 35.0352 15.9154 35.7808 17.1664L32.6678 20.2794H28.0394C27.5838 18.1845 25.7161 16.6104 23.4867 16.6104ZM26.0049 20.2794H20.969C21.3652 19.2758 22.3442 18.5636 23.4869 18.5636C24.6296 18.5636 25.6085 19.2758 26.0049 20.2794ZM10.644 18.5494L13.2302 8.89774C13.9393 8.90916 14.6446 8.72811 15.2764 8.36317C15.9082 7.99842 16.4166 7.47977 16.7624 6.85838L21.1574 8.03602L10.644 18.5494ZM11.7023 2.17283L23.7835 5.40994L22.7522 6.44139L16.4406 4.75018C16.1903 4.68309 15.9238 4.71824 15.6996 4.84773C15.4753 4.97723 15.3116 5.19051 15.2446 5.4407C15.1044 5.96375 14.769 6.40096 14.3 6.67176C13.831 6.94256 13.2846 7.01444 12.7614 6.8743C12.2406 6.73465 11.705 7.04383 11.5654 7.56483L8.15 20.311H6.84219L11.7023 2.17283ZM4.10147 16.0142H5.97149L4.82012 20.311H4.10137C2.9167 20.311 1.95303 19.3473 1.95303 18.1627C1.95313 16.978 2.91699 16.0142 4.10147 16.0142ZM48.0455 45.1161C48.0455 46.7315 46.7313 48.0457 45.1159 48.0457H43.747C44.361 47.2293 44.7253 46.2151 44.7253 45.1173V41.1938H45.3112C46.3312 41.1938 47.2752 40.8654 48.0455 40.3102V45.1161ZM48.0455 36.5065C48.0455 38.0143 46.8189 39.2408 45.3112 39.2408H24.804C22.5425 39.2408 20.7025 37.401 20.7025 35.1393C20.7025 32.8777 22.5424 31.0379 24.804 31.0379H27.7636C28.3029 31.0379 28.7401 30.6006 28.7401 30.0613C28.7401 29.5221 28.3029 29.0848 27.7636 29.0848H24.804C21.4655 29.0848 18.7495 31.8008 18.7495 35.1392C18.7495 38.4777 21.4655 41.1937 24.804 41.1937H42.7723V45.1172C42.7723 46.7175 41.4823 48.0225 39.8878 48.0468H6.64043V37.0498C6.64043 36.5105 6.20323 36.0732 5.66387 36.0732C5.12451 36.0732 4.68731 36.5105 4.68731 37.0498V48.0396C3.1627 47.9388 1.95303 46.667 1.95303 45.1174V21.6545C2.57832 22.0406 3.31416 22.264 4.10137 22.264H39.8425C41.4579 22.264 42.7721 23.5783 42.7721 25.1936V29.0849H35.7112C35.1719 29.0849 34.7347 29.5222 34.7347 30.0614C34.7347 30.6007 35.1719 31.038 35.7112 31.038H45.731C46.5838 31.038 47.3783 30.7855 48.0455 30.3529V36.5065Z" fill="#F7992B"/>
<path d="M6.3544 32.5506C6.17276 32.369 5.9208 32.2644 5.66397 32.2644C5.40713 32.2644 5.15518 32.3689 4.97354 32.5506C4.7919 32.7322 4.6874 32.9842 4.6874 33.241C4.6874 33.4978 4.7919 33.7498 4.97354 33.9314C5.15518 34.1131 5.40713 34.2176 5.66397 34.2176C5.9208 34.2176 6.17276 34.1131 6.3544 33.9314C6.53604 33.7498 6.64053 33.4978 6.64053 33.241C6.64043 32.9842 6.53594 32.7322 6.3544 32.5506Z" fill="#F7992B"/>
</svg>
