<svg width="8" height="13" viewBox="0 0 8 13" fill="none" xmlns="http://www.w3.org/2000/svg">
<path d="M3.53758 6.21195L7.2831 9.95763C7.47341 10.1478 7.56835 10.3803 7.56835 10.6552C7.56835 10.9301 7.47339 11.1625 7.2831 11.3526L6.70517 11.9307C6.51515 12.1208 6.28259 12.2158 6.00779 12.2158C5.73298 12.2158 5.50053 12.1208 5.31022 11.9307L0.285227 6.91338C0.095076 6.72325 5.00502e-07 6.49075 5.24538e-07 6.21581C5.48574e-07 5.94087 0.0950491 5.70855 0.285227 5.51834L5.31019 0.500993C5.5005 0.310869 5.73293 0.215821 6.00776 0.215821C6.28259 0.215821 6.51513 0.310869 6.70514 0.500993L7.28307 1.079C7.47339 1.26902 7.56833 1.50023 7.56833 1.77269C7.56833 2.04493 7.47336 2.27873 7.28307 2.47396L3.53758 6.21195Z" fill="white"/>
</svg>
