<svg width="14" height="9" viewBox="0 0 14 9" fill="none" xmlns="http://www.w3.org/2000/svg">
<path d="M6.99548 4.12718L11.3654 8.49695C11.5873 8.71898 11.8585 8.82975 12.1793 8.82975C12.5 8.82975 12.7711 8.71895 12.9929 8.49695L13.6674 7.8227C13.8891 7.60101 14 7.32969 14 7.00909C14 6.68848 13.8891 6.41728 13.6674 6.19525L7.81382 0.332765C7.59201 0.110922 7.32075 2.91959e-07 6.99998 3.0598e-07C6.67922 3.20001e-07 6.40818 0.11089 6.18628 0.332765L0.332702 6.19522C0.110891 6.41725 1.24603e-06 6.68842 1.26005e-06 7.00905C1.27407e-06 7.32969 0.110891 7.60098 0.332702 7.82267L1.00705 8.49692C1.22873 8.71895 1.49848 8.82972 1.81635 8.82972C2.13396 8.82972 2.40673 8.71892 2.63449 8.49692L6.99548 4.12718Z" fill="#F7992B"/>
</svg>
