<svg width="9" height="16" viewBox="0 0 9 16" fill="none" xmlns="http://www.w3.org/2000/svg">
<path d="M8.32467 0.00332907L6.24983 0C3.91881 0 2.41241 1.54552 2.41241 3.93762V5.75313H0.326249C0.14598 5.75313 0 5.89927 0 6.07954V8.71001C0 8.89028 0.146146 9.03625 0.326249 9.03625H2.41241V15.6738C2.41241 15.854 2.55839 16 2.73866 16H5.4605C5.64077 16 5.78675 15.8539 5.78675 15.6738V9.03625H8.22596C8.40623 9.03625 8.55221 8.89028 8.55221 8.71001L8.55321 6.07954C8.55321 5.99299 8.51875 5.91009 8.45766 5.84884C8.39658 5.78758 8.31335 5.75313 8.22679 5.75313H5.78675V4.2141C5.78675 3.47438 5.96303 3.09886 6.92663 3.09886L8.32433 3.09836C8.50444 3.09836 8.65042 2.95222 8.65042 2.77211V0.329578C8.65042 0.149642 8.5046 0.00366197 8.32467 0.00332907Z" fill="white"/>
</svg>
