<svg width="210" height="34" viewBox="0 0 210 34" fill="none" xmlns="http://www.w3.org/2000/svg">
<path d="M7.46309 0H4.85597C2.38807 0 1.20069 1.28565 1.10242 3.70442L0 30.9353V31.9272C0 33.0665 0.932503 34 2.0728 34H8.48567C9.05479 34 9.49187 33.5322 9.52156 32.9641L9.62494 30.9353L10.2033 14.0121L7.46309 0Z" fill="#294594"/>
<path d="M21.3698 21.9297H21.1477C20.9992 20.2499 20.8508 18.5221 20.6041 16.8424L18.1424 3.30931C17.7472 1.08707 16.3152 0 14.093 0H9.57275L11.1378 8.00151L14.5372 25.3874L14.5413 25.4069L14.5628 25.5164C14.9897 27.6035 16.4104 28.6466 18.6368 28.6466H21.3698H24.1028C26.3291 28.6466 27.7489 27.6035 28.1767 25.5164L28.1982 25.4069L28.2023 25.3874L31.6017 8.00151L33.1668 0H28.6466C26.4243 0 24.9913 1.08707 24.5962 3.30931L22.1354 16.8424C21.8877 18.5221 21.7403 20.2499 21.5919 21.9297H21.3698Z" fill="#F7992B"/>
<path d="M35.2764 0H37.8825C40.3504 0 41.5388 1.28565 41.6361 3.70442L42.7395 30.9353V31.9272C42.7395 33.0665 41.806 34 40.6667 34H34.2539C33.6837 34 33.2466 33.5322 33.218 32.9641L33.1146 30.9353L32.5363 14.0121L35.2764 0Z" fill="#294594"/>
<path d="M69.4842 17.5284C72.2244 17.2878 73.2777 15.7821 73.2777 12.8003C73.2777 8.52474 71.2305 7.38137 65.4492 7.38137C61.4745 7.38137 59.1561 7.41106 56.4763 7.62192V28.398C59.4273 28.6089 61.9567 28.6385 66.4431 28.6385C71.6522 28.6385 73.9697 27.4942 73.9697 23.2186C73.9697 19.9072 72.7956 17.9798 69.4842 17.7085V17.5284ZM67.045 13.7339C67.045 15.3604 66.6837 15.7217 65.1779 15.7217H62.8595V11.8074H65.1175C66.6837 11.8074 67.045 12.1381 67.045 13.7339ZM62.8595 24.2125V19.5459H65.2383C67.0747 19.5459 67.4667 19.9676 67.4667 21.894C67.4667 23.7908 67.0747 24.2125 65.268 24.2125H62.8595ZM94.7693 12.4994V7.62192H76.6126V12.4994H82.4236V28.398H88.9583V12.4994H94.7693ZM107.228 7.2002C100.122 7.2002 97.5627 9.45826 97.5627 18.0094C97.5627 26.5606 100.122 28.8197 107.228 28.8197C114.364 28.8197 116.923 26.5606 116.923 18.0094C116.923 9.45826 114.364 7.2002 107.228 7.2002ZM107.228 12.048C109.456 12.048 110.028 13.1924 110.028 18.0094C110.028 22.8275 109.456 23.9719 107.228 23.9719C104.999 23.9719 104.427 22.8275 104.427 18.0094C104.427 13.1924 104.999 12.048 107.228 12.048ZM130.044 7.32098C125.889 7.32098 124.022 7.35067 121.252 7.62192V28.398H127.786V21.2317C128.809 21.3525 129.893 21.4119 130.948 21.4119C136.639 21.4119 138.655 19.8765 138.655 14.3971C138.655 8.85638 136.639 7.32098 130.044 7.32098ZM127.786 16.8057V11.9282H129.893C131.67 11.9282 132.122 12.4093 132.122 14.3971C132.122 16.3236 131.67 16.8057 129.893 16.8057H127.786ZM159.63 7.62192C158.245 7.62192 157.372 8.28419 157.131 9.63944L155.721 17.8897C155.57 18.9133 155.48 19.9676 155.359 20.9912H155.088C154.998 19.9676 154.908 18.9133 154.758 17.8897L153.257 9.63944C153.016 8.28419 152.143 7.62192 150.788 7.62192H145.157C143.651 7.62192 142.929 8.40498 142.868 9.87999L142.147 28.398H148.023L148.535 12.4994H148.986L151.059 23.0988C151.3 24.4233 152.173 25.0856 153.558 25.0856H156.926C158.305 25.0856 159.178 24.4233 159.389 23.0988L161.431 12.4994H161.884L162.515 28.398H168.392L167.669 9.87999C167.609 8.40498 166.887 7.62192 165.382 7.62192H159.63ZM188.263 23.5205H180.645C179.892 23.5205 179.411 23.0681 179.411 22.4365V19.9369H187.179V15.6009H179.411V13.5834C179.411 12.9518 179.892 12.4994 180.645 12.4994H188.263L188.564 7.89317C185.553 7.50113 181.337 7.50113 177.755 7.50113C174.894 7.50113 172.876 9.42858 172.876 12.2292V23.7908C172.876 26.5913 174.894 28.5188 177.755 28.5188C181.337 28.5188 185.553 28.5188 188.564 28.1267L188.263 23.5205ZM209.544 12.4994V7.62192H191.387V12.4994H197.198V28.398H203.733V12.4994H209.544Z" fill="#262728"/>
</svg>
