<svg width="111" height="18" viewBox="0 0 111 18" fill="none" xmlns="http://www.w3.org/2000/svg">
<path d="M3.95105 0H2.57081C1.26427 0 0.635658 0.680636 0.583634 1.96116L0 16.3775V16.9026C0 17.5058 0.493678 18 1.09736 18H4.49241C4.79371 18 5.02511 17.7523 5.04082 17.4516L5.09556 16.3775L5.40174 7.41817L3.95105 0Z" fill="white"/>
<path d="M11.3134 11.6098H11.1958C11.1172 10.7206 11.0386 9.80582 10.908 8.91655L9.60472 1.75199C9.39554 0.575506 8.63742 0 7.46093 0H5.06787L5.89645 4.23609L7.69612 13.4404L7.69829 13.4507L7.70967 13.5087C7.93565 14.6136 8.68781 15.1658 9.86646 15.1658H11.3134H12.7602C13.9389 15.1658 14.6905 14.6136 14.917 13.5087L14.9284 13.4507L14.9306 13.4404L16.7303 4.23609L17.5588 0H15.1658C13.9893 0 13.2306 0.575506 13.0214 1.75199L11.7187 8.91655C11.5876 9.80582 11.5095 10.7206 11.4309 11.6098H11.3134Z" fill="#F7992B"/>
<path d="M18.6755 0H20.0552C21.3618 0 21.9909 0.680636 22.0424 1.96116L22.6266 16.3775V16.9026C22.6266 17.5058 22.1324 18 21.5292 18H18.1342C17.8323 18 17.6009 17.7523 17.5858 17.4516L17.531 16.3775L17.2249 7.41817L18.6755 0Z" fill="white"/>
<path d="M36.786 9.28035C38.2367 9.153 38.7943 8.35585 38.7943 6.77728C38.7943 4.51373 37.7105 3.90842 34.6498 3.90842C32.5455 3.90842 31.3181 3.92413 29.8994 4.03577V15.0349C31.4617 15.1465 32.8008 15.1622 35.176 15.1622C37.9337 15.1622 39.1606 14.5564 39.1606 12.2928C39.1606 10.5397 38.539 9.51933 36.786 9.37572V9.28035ZM35.4946 7.2715C35.4946 8.13259 35.3033 8.32388 34.5062 8.32388H33.2787V6.25163H34.4742C35.3033 6.25163 35.4946 6.42666 35.4946 7.2715ZM33.2787 12.819V10.3484H34.5381C35.5103 10.3484 35.7179 10.5717 35.7179 11.5916C35.7179 12.5957 35.5103 12.819 34.5539 12.819H33.2787ZM50.1722 6.61796V4.03577H40.5598V6.61796H43.6362V15.0349H47.0958V6.61796H50.1722ZM56.7677 3.8125C53.0058 3.8125 51.651 5.00795 51.651 9.53504C51.651 14.0621 53.0058 15.2581 56.7677 15.2581C60.5459 15.2581 61.9007 14.0621 61.9007 9.53504C61.9007 5.00795 60.5459 3.8125 56.7677 3.8125ZM56.7677 6.37897C57.9475 6.37897 58.2504 6.98483 58.2504 9.53504C58.2504 12.0858 57.9475 12.6917 56.7677 12.6917C55.588 12.6917 55.2851 12.0858 55.2851 9.53504C55.2851 6.98483 55.588 6.37897 56.7677 6.37897ZM68.8468 3.87645C66.6472 3.87645 65.6588 3.89216 64.1924 4.03577V15.0349H67.6514V11.241C68.1933 11.3049 68.7672 11.3363 69.3254 11.3363C72.3384 11.3363 73.4059 10.5235 73.4059 7.62265C73.4059 4.68931 72.3384 3.87645 68.8468 3.87645ZM67.6514 8.89776V6.31557H68.7672C69.7079 6.31557 69.9469 6.57027 69.9469 7.62265C69.9469 8.64252 69.7079 8.89776 68.7672 8.89776H67.6514ZM84.5101 4.03577C83.7769 4.03577 83.3147 4.38638 83.1873 5.10387L82.4406 9.47164C82.3609 10.0135 82.3132 10.5717 82.2493 11.1136H82.1057C82.058 10.5717 82.0103 10.0135 81.9307 9.47164L81.1362 5.10387C81.0089 4.38638 80.5466 4.03577 79.8291 4.03577H76.8481C76.051 4.03577 75.6684 4.45033 75.6364 5.23121L75.2544 15.0349H78.3655L78.6364 6.61796H78.8754L79.9728 12.2294C80.1001 12.9306 80.5623 13.2812 81.2955 13.2812H83.0784C83.8089 13.2812 84.2712 12.9306 84.3828 12.2294L85.4639 6.61796H85.7034L86.0378 15.0349H89.1489L88.7663 5.23121C88.7343 4.45033 88.3523 4.03577 87.5551 4.03577H84.5101ZM99.6689 12.4527H95.636C95.2372 12.4527 94.9825 12.2132 94.9825 11.8788V10.5555H99.095V8.25994H94.9825V7.19184C94.9825 6.85748 95.2372 6.61796 95.636 6.61796H99.6689L99.8282 4.17937C98.234 3.97182 96.0024 3.97182 94.1057 3.97182C92.5911 3.97182 91.523 4.99223 91.523 6.47489V12.5957C91.523 14.0784 92.5911 15.0988 94.1057 15.0988C96.0024 15.0988 98.234 15.0988 99.8282 14.8913L99.6689 12.4527ZM110.935 6.61796V4.03577H101.323V6.61796H104.399V15.0349H107.859V6.61796H110.935Z" fill="white"/>
</svg>
