<svg width="110" height="110" viewBox="0 0 110 110" fill="none" xmlns="http://www.w3.org/2000/svg">
<circle opacity="0.1" cx="55" cy="55" r="55" fill="white"/>
<circle cx="55" cy="55" r="50" fill="white"/>
<path d="M78.5 34.1667H75.1667C75.1667 33.9457 75.0789 33.7337 74.9226 33.5774C74.7663 33.4211 74.5543 33.3333 74.3333 33.3333H72.6667V31.6667H71V33.3333H69.3333V30H67.6667V33.3333H66C65.779 33.3333 65.567 33.4211 65.4107 33.5774C65.2545 33.7337 65.1667 33.9457 65.1667 34.1667V35.8333H41.8333V34.1667H40.1667V35.8333H38.5V32.5H36.8333V35.8333H34.3333C34.1123 35.8333 33.9004 35.9211 33.7441 36.0774C33.5878 36.2337 33.5 36.4457 33.5 36.6667V40C33.5 40.221 33.5878 40.433 33.7441 40.5893C33.9004 40.7455 34.1123 40.8333 34.3333 40.8333H36.8333V51.7721C36.2297 51.9279 35.6819 52.25 35.2521 52.7015C34.8223 53.1531 34.5278 53.7162 34.4019 54.3268C34.2761 54.9374 34.324 55.5711 34.5403 56.1558C34.7565 56.7405 35.1324 57.2529 35.6253 57.6347C36.1181 58.0165 36.7081 58.2524 37.3283 58.3157C37.9485 58.379 38.5741 58.267 39.1339 57.9926C39.6936 57.7182 40.1653 57.2923 40.4951 56.7633C40.825 56.2343 40.9999 55.6234 41 55H39.3333C39.3333 55.3296 39.2356 55.6519 39.0524 55.926C38.8693 56.2 38.609 56.4137 38.3045 56.5398C37.9999 56.6659 37.6648 56.6989 37.3415 56.6346C37.0182 56.5703 36.7212 56.4116 36.4882 56.1785C36.2551 55.9454 36.0963 55.6485 36.032 55.3252C35.9677 55.0019 36.0007 54.6667 36.1269 54.3622C36.253 54.0576 36.4666 53.7974 36.7407 53.6142C37.0148 53.4311 37.337 53.3333 37.6667 53.3333C37.8877 53.3333 38.0996 53.2455 38.2559 53.0893C38.4122 52.933 38.5 52.721 38.5 52.5V40.8333H65.1667V42.5C65.1667 42.721 65.2545 42.933 65.4107 43.0893C65.567 43.2455 65.779 43.3333 66 43.3333H66.8333V75H62.6667C62.4457 75 62.2337 75.0878 62.0774 75.2441C61.9211 75.4004 61.8333 75.6123 61.8333 75.8333V79.1667C61.8333 79.3877 61.9211 79.5996 62.0774 79.7559C62.2337 79.9122 62.4457 80 62.6667 80H77.6667C77.8877 80 78.0996 79.9122 78.2559 79.7559C78.4122 79.5996 78.5 79.3877 78.5 79.1667V75.8333C78.5 75.6123 78.4122 75.4004 78.2559 75.2441C78.0996 75.0878 77.8877 75 77.6667 75H73.5V43.3333H74.3333C74.5543 43.3333 74.7663 43.2455 74.9226 43.0893C75.0789 42.933 75.1667 42.721 75.1667 42.5V42.2308L78.8095 40.7738C78.9641 40.7119 79.0967 40.6051 79.1901 40.4672C79.2834 40.3293 79.3333 40.1666 79.3333 40V35C79.3333 34.779 79.2455 34.567 79.0893 34.4107C78.933 34.2545 78.721 34.1667 78.5 34.1667ZM48.8452 37.5H53.1548L54.8215 39.1667H50.5119L48.8452 37.5ZM48.1548 39.1667H43.8452L42.1785 37.5H46.4881L48.1548 39.1667ZM55.5119 37.5H59.8215L61.4881 39.1667H57.1785L55.5119 37.5ZM35.1667 39.1667V37.5H36.8333V39.1667H35.1667ZM38.5 37.5H39.8215L41.4881 39.1667H38.5V37.5ZM63.8452 39.1667L62.1785 37.5H65.1667V39.1667H63.8452ZM68.5 57.1548V52.8452L71.8333 56.1785V60.4881L68.5 57.1548ZM71.8333 62.8452V67.1548L68.5 63.8215V59.5119L71.8333 62.8452ZM68.5 66.1785L71.8333 69.5119V73.8215L68.5 70.4881V66.1785ZM71.8333 53.8215L68.5 50.4881V46.1785L71.8333 49.5119V53.8215ZM68.5 72.8452L70.6548 75H68.5V72.8452ZM76.8333 78.3333H63.5V76.6667H76.8333V78.3333ZM71.8333 47.1548L68.5 43.8215V43.3333H71.8333V47.1548ZM73.5 41.6667H66.8333V35H73.5V41.6667ZM77.6667 39.4357L75.1667 40.4357V35.8333H77.6667V39.4357Z" fill="#262728"/>
<path d="M34.3333 73.3333H36V76.6667H34.3333V73.3333Z" fill="#262728"/>
<path d="M37.6667 73.3333H39.3333V76.6667H37.6667V73.3333Z" fill="#262728"/>
<path d="M41 73.3333H42.6667V76.6667H41V73.3333Z" fill="#262728"/>
<path d="M61.8333 62.5C61.8333 62.279 61.7455 62.067 61.5893 61.9107C61.433 61.7545 61.221 61.6667 61 61.6667H58.5V54.1667C58.5 53.9457 58.4122 53.7337 58.2559 53.5774C58.0996 53.4211 57.8877 53.3333 57.6667 53.3333H44.3333C44.1123 53.3333 43.9004 53.4211 43.7441 53.5774C43.5878 53.7337 43.5 53.9457 43.5 54.1667V61.6667H34.3333C34.1123 61.6667 33.9004 61.7545 33.7441 61.9107C33.5878 62.067 33.5 62.279 33.5 62.5V70H31.8333C31.6123 70 31.4004 70.0878 31.2441 70.2441C31.0878 70.4004 31 70.6123 31 70.8333V79.1667C31 79.3877 31.0878 79.5996 31.2441 79.7559C31.4004 79.9122 31.6123 80 31.8333 80H58.5C58.721 80 58.933 79.9122 59.0893 79.7559C59.2455 79.5996 59.3333 79.3877 59.3333 79.1667V71.6667H61C61.221 71.6667 61.433 71.5789 61.5893 71.4226C61.7455 71.2663 61.8333 71.0543 61.8333 70.8333V62.5ZM45.1667 55H56.8333V61.6667H45.1667V55ZM35.1667 63.3333H46.8333V70H35.1667V63.3333ZM32.6667 71.6667H44.3333V78.3333H32.6667V71.6667ZM57.6667 78.3333H46V71.6667H57.6667V78.3333ZM60.1667 70H48.5V63.3333H60.1667V70Z" fill="#262728"/>
<path d="M50.1667 65H51.8333V68.3333H50.1667V65Z" fill="#262728"/>
<path d="M53.5 65H55.1667V68.3333H53.5V65Z" fill="#262728"/>
<path d="M56.8333 65H58.5V68.3333H56.8333V65Z" fill="#262728"/>
<path d="M36.8333 65H38.5V68.3333H36.8333V65Z" fill="#262728"/>
<path d="M40.1667 65H41.8333V68.3333H40.1667V65Z" fill="#262728"/>
<path d="M43.5 65H45.1667V68.3333H43.5V65Z" fill="#262728"/>
<path d="M46.8333 56.6667H48.5V60H46.8333V56.6667Z" fill="#262728"/>
<path d="M50.1667 56.6667H51.8333V60H50.1667V56.6667Z" fill="#262728"/>
<path d="M53.5 56.6667H55.1667V60H53.5V56.6667Z" fill="#262728"/>
<path d="M47.6667 73.3333H49.3333V76.6667H47.6667V73.3333Z" fill="#262728"/>
<path d="M51 73.3333H52.6667V76.6667H51V73.3333Z" fill="#262728"/>
<path d="M54.3333 73.3333H56V76.6667H54.3333V73.3333Z" fill="#262728"/>
<circle cx="17" cy="17" r="13" fill="#F7992B" stroke="white" stroke-width="2"/>
<path d="M21.0941 18.84H19.7181V14.104H17.8621L17.4621 15.864V18.84H14.7901C14.4861 18.84 14.3101 18.664 14.4701 18.312L17.0941 11.96H14.7901L11.9261 18.776C11.5581 19.672 12.1341 20.568 13.0941 20.568H17.4621V23H19.7181V20.568H19.7501L21.0941 20.344V18.84Z" fill="white"/>
</svg>
