<svg width="110" height="110" viewBox="0 0 110 110" fill="none" xmlns="http://www.w3.org/2000/svg">
<circle opacity="0.1" cx="55" cy="55" r="55" fill="white"/>
<circle cx="55" cy="55" r="50" fill="white"/>
<path d="M69.4268 45.6662H60.4882C61.43 44.5377 61.9979 43.0865 61.9979 41.5051C61.9979 37.9181 59.0798 35 55.4931 35C51.9061 35 48.988 37.9181 48.988 41.5051C48.988 43.0865 49.5559 44.5377 50.4977 45.6662H41.5591L36 75H74.9859L69.4268 45.6662ZM55.4931 37.3438C57.7874 37.3438 59.6542 39.2105 59.6542 41.5051C59.6542 43.7994 57.7874 45.6662 55.4931 45.6662C53.1985 45.6662 51.3317 43.7994 51.3317 41.5051C51.3317 39.2105 53.1985 37.3438 55.4931 37.3438ZM43.5003 48.0099H67.4856L72.1563 72.6562H38.8296L43.5003 48.0099Z" fill="#262728"/>
<path d="M55.5404 55.6711H52.8802L49.161 59.3851V55.6711H47.2494V65.0375H49.161V61.8362L50.1251 60.8963L53.0386 65.0375H55.5062L51.4901 59.5828L55.5404 55.6711Z" fill="#262728"/>
<path d="M59.3224 61.6678H61.8484V62.695C61.6454 62.843 61.369 62.9883 61.0238 63.1277C60.6039 63.2977 60.1675 63.3838 59.7274 63.3838C59.2236 63.3838 58.7414 63.2712 58.2937 63.049C57.8622 62.8351 57.5417 62.5153 57.3147 62.0709C57.0803 61.6129 56.9616 61.0254 56.9616 60.325C56.9616 59.7577 57.0623 59.2258 57.2598 58.7457C57.3715 58.4787 57.5305 58.23 57.7325 58.0057C57.925 57.7921 58.1872 57.6151 58.511 57.4799C58.8409 57.3422 59.244 57.2723 59.7097 57.2723C60.0891 57.2723 60.4366 57.338 60.7427 57.4673C61.0339 57.5903 61.2573 57.7518 61.4065 57.9468C61.5682 58.158 61.7083 58.4625 61.8231 58.8522L61.9305 59.2169L63.6904 58.7341L63.5955 58.3652C63.4341 57.7365 63.1912 57.215 62.8732 56.8143C62.5469 56.4032 62.0962 56.0803 61.5328 55.8545C60.9872 55.6357 60.3719 55.5249 59.7039 55.5249C58.7878 55.5249 57.9632 55.7178 57.2531 56.098C56.5261 56.4874 55.9622 57.0889 55.5779 57.8857C55.2041 58.6603 55.0149 59.5044 55.0149 60.3955C55.0149 61.2976 55.2065 62.1283 55.5853 62.8641C55.9725 63.6172 56.5533 64.2004 57.312 64.5978C58.0544 64.9869 58.8888 65.1843 59.7918 65.1843C60.4611 65.1843 61.1224 65.0626 61.7574 64.8221C62.3864 64.5844 63.0032 64.2261 63.5906 63.7576L63.7368 63.6414V59.8785L59.3224 59.8856V61.6678Z" fill="#262728"/>
<circle cx="17" cy="17" r="13" fill="#F7992B" stroke="white" stroke-width="2"/>
<path d="M19.8218 13.848L19.9018 11.96H13.4058L13.1338 16.808C13.1018 17.288 13.4378 17.656 13.9018 17.704L15.2458 17.864C17.1978 18.04 17.8858 18.168 17.8218 19.576C17.7898 20.664 17.4378 21.144 15.7738 21.144C15.0058 21.144 13.9658 21.064 12.9258 20.952L12.7018 22.84C14.0298 23.064 15.3738 23.192 16.3818 23.192C19.4698 23.192 20.2378 21.512 20.2378 19.624C20.2378 17.64 19.4218 16.328 16.7498 16.04L15.1658 15.848L15.2938 13.848H19.8218Z" fill="white"/>
</svg>
