<svg width="110" height="110" viewBox="0 0 110 110" fill="none" xmlns="http://www.w3.org/2000/svg">
<circle opacity="0.1" cx="55" cy="55" r="55" fill="white"/>
<circle cx="55" cy="55" r="50" fill="white"/>
<path d="M66.5835 59.7786C65.7646 58.9259 64.7769 58.47 63.73 58.47C62.6916 58.47 61.6954 58.9175 60.8428 59.7701L58.175 62.4295C57.9555 62.3113 57.736 62.2015 57.525 62.0918C57.221 61.9398 56.934 61.7963 56.6892 61.6443C54.1903 60.0572 51.9193 57.9888 49.7412 55.3126C48.6859 53.9787 47.9767 52.8559 47.4618 51.7162C48.154 51.083 48.7957 50.4245 49.4204 49.7914C49.6568 49.555 49.8931 49.3101 50.1295 49.0738C51.9024 47.3009 51.9024 45.0046 50.1295 43.2317L47.8248 40.927C47.5631 40.6653 47.2929 40.3951 47.0397 40.125C46.5331 39.6015 46.0013 39.0612 45.4525 38.5547C44.6336 37.7442 43.6543 37.3137 42.6243 37.3137C41.5944 37.3137 40.5982 37.7442 39.754 38.5547C39.7455 38.5631 39.7455 38.5631 39.7371 38.5716L36.8667 41.4673C35.7861 42.5479 35.1698 43.8649 35.0347 45.3929C34.8321 47.8581 35.5582 50.1544 36.1154 51.6571C37.483 55.3464 39.526 58.7655 42.5737 62.4295C46.2714 66.8448 50.7205 70.3314 55.8027 72.7881C57.7445 73.7083 60.3362 74.7974 63.2319 74.9831C63.4092 74.9916 63.595 75 63.7638 75C65.714 75 67.3518 74.2993 68.635 72.9063C68.6434 72.8894 68.6603 72.881 68.6688 72.8641C69.1078 72.3322 69.6143 71.851 70.1462 71.3361C70.5092 70.9899 70.8806 70.6269 71.2437 70.247C72.0794 69.3774 72.5184 68.3644 72.5184 67.326C72.5184 66.2791 72.071 65.2745 71.2183 64.4303L66.5835 59.7786ZM69.6059 68.6683C69.5974 68.6767 69.5974 68.6683 69.6059 68.6683C69.2766 69.0229 68.9389 69.3437 68.5759 69.6983C68.0272 70.2217 67.47 70.7704 66.9465 71.3867C66.0939 72.2985 65.0892 72.729 63.7722 72.729C63.6456 72.729 63.5105 72.729 63.3839 72.7206C60.8765 72.5602 58.5465 71.5809 56.7989 70.7451C52.0206 68.4319 47.8248 65.1479 44.3381 60.9858C41.4593 57.516 39.5345 54.308 38.2597 50.8635C37.4746 48.7614 37.1875 47.1236 37.3142 45.5787C37.3986 44.5909 37.7785 43.772 38.4792 43.0713L41.358 40.1925C41.7717 39.8041 42.2107 39.5931 42.6412 39.5931C43.1731 39.5931 43.6037 39.9139 43.8738 40.184C43.8822 40.1925 43.8907 40.2009 43.8991 40.2094C44.4141 40.6906 44.9038 41.1887 45.4187 41.7205C45.6804 41.9907 45.9506 42.2608 46.2208 42.5394L48.5255 44.8442C49.4204 45.7391 49.4204 46.5664 48.5255 47.4613C48.2807 47.7061 48.0443 47.9509 47.7995 48.1873C47.0903 48.9134 46.4149 49.5887 45.6805 50.2472C45.6636 50.2641 45.6467 50.2726 45.6382 50.2895C44.9122 51.0155 45.0473 51.7246 45.1992 52.2059C45.2077 52.2312 45.2161 52.2565 45.2246 52.2818C45.824 53.7339 46.6682 55.1016 47.9514 56.7309L47.9599 56.7394C50.2899 59.6097 52.7466 61.8469 55.4566 63.5607C55.8027 63.7802 56.1573 63.9575 56.495 64.1263C56.7989 64.2783 57.086 64.4218 57.3308 64.5738C57.3646 64.5907 57.3983 64.616 57.4321 64.6329C57.7191 64.7764 57.9893 64.8439 58.2679 64.8439C58.9686 64.8439 59.4076 64.4049 59.5511 64.2614L62.4384 61.3742C62.7254 61.0871 63.1813 60.741 63.7132 60.741C64.2366 60.741 64.6671 61.0702 64.9288 61.3573C64.9373 61.3657 64.9373 61.3657 64.9457 61.3742L69.5974 66.0259C70.467 66.887 70.467 67.7734 69.6059 68.6683Z" fill="#262728"/>
<path d="M56.5879 44.5149C58.7997 44.8864 60.809 45.9332 62.413 47.5373C64.0171 49.1413 65.0555 51.1506 65.4354 53.3624C65.5282 53.9196 66.0095 54.308 66.5582 54.308C66.6257 54.308 66.6848 54.2995 66.7524 54.2911C67.3771 54.1898 67.7908 53.5988 67.6895 52.9741C67.2336 50.2979 65.9672 47.8581 64.034 45.9248C62.1007 43.9915 59.6609 42.7252 56.9847 42.2693C56.3599 42.168 55.7774 42.5817 55.6677 43.1979C55.5579 43.8142 55.9631 44.4136 56.5879 44.5149Z" fill="#262728"/>
<path d="M74.9245 52.6448C74.1731 48.238 72.0963 44.2279 68.9052 41.0367C65.714 37.8455 61.7039 35.7687 57.297 35.0174C56.6807 34.9076 56.0982 35.3297 55.9885 35.946C55.8872 36.5708 56.3008 37.1533 56.9256 37.263C60.8597 37.93 64.4476 39.7957 67.3011 42.6408C70.1546 45.4942 72.0119 49.0822 72.6789 53.0163C72.7717 53.5735 73.2529 53.9618 73.8017 53.9618C73.8692 53.9618 73.9283 53.9534 73.9958 53.945C74.6121 53.8521 75.0342 53.2611 74.9245 52.6448Z" fill="#262728"/>
<circle cx="17" cy="17" r="13" fill="#F7992B" stroke="white" stroke-width="2"/>
<path d="M18.4463 23V11.96H16.0143L13.2463 13.064L13.5343 14.696L16.1103 14.024C16.0303 14.44 16.0143 14.824 16.0143 15.224V23H18.4463Z" fill="white"/>
</svg>
