<svg width="110" height="110" viewBox="0 0 110 110" fill="none" xmlns="http://www.w3.org/2000/svg">
<circle opacity="0.1" cx="55" cy="55" r="55" fill="white"/>
<circle cx="55" cy="55" r="50" fill="white"/>
<path d="M54.8261 40.8696C54.2261 40.8696 53.7391 41.3566 53.7391 41.9565C53.7391 42.5565 54.2261 43.0435 54.8261 43.0435C55.426 43.0435 55.913 42.5565 55.913 41.9565C55.913 41.3566 55.426 40.8696 54.8261 40.8696Z" fill="#262728"/>
<path d="M36.7826 60.4348C37.3826 60.4348 37.8696 59.9478 37.8696 59.3478C37.8696 58.7479 37.3826 58.2609 36.7826 58.2609C36.1827 58.2609 35.6957 58.7479 35.6957 59.3478C35.6957 59.9478 36.1827 60.4348 36.7826 60.4348Z" fill="#262728"/>
<path d="M63.5217 30C53.7362 30 45.7046 36.7468 45.0834 45.245C35.764 45.7125 27 52.4325 27 61.5217C27 65.3201 28.5031 69.0005 31.2391 71.9166C31.7805 74.1483 31.1232 76.5137 29.4924 78.1445C29.1816 78.4553 29.0886 78.9228 29.2567 79.3291C29.4248 79.7351 29.821 80 30.2609 80C33.3608 80 36.3483 78.7844 38.568 76.6423C40.7305 77.3794 43.5519 77.8261 46.1304 77.8261C55.9147 77.8261 63.9455 71.081 64.5684 62.5845C66.8442 62.4834 69.2113 62.0631 71.0842 61.4249C73.3039 63.567 76.2914 64.7826 79.3913 64.7826C79.8312 64.7826 80.2273 64.5177 80.3955 64.1118C80.5636 63.7054 80.4706 63.2379 80.1598 62.9271C78.529 61.2963 77.8717 58.9309 78.413 56.6992C81.1491 53.7831 82.6522 50.1028 82.6522 46.3043C82.6522 36.8601 73.2131 30 63.5217 30ZM46.1304 75.6522C43.565 75.6522 40.6417 75.1486 38.6835 74.3695C38.264 74.2022 37.7846 74.3122 37.4794 74.6455C36.167 76.0802 34.4605 77.0805 32.6012 77.5403C33.6258 75.5774 33.8873 73.2634 33.264 71.0708C33.2148 70.898 33.1235 70.7401 32.9982 70.6114C30.5322 68.0715 29.1739 64.8433 29.1739 61.5217C29.1739 53.8621 36.9389 47.3913 46.1304 47.3913C54.81 47.3913 62.4348 53.4269 62.4348 61.5217C62.4348 69.3134 55.1208 75.6522 46.1304 75.6522ZM76.654 55.394C76.5287 55.5231 76.4374 55.681 76.3882 55.8534C75.7649 58.046 76.0264 60.3601 77.051 62.3229C75.1917 61.8635 73.4852 60.8628 72.1728 59.4281C71.8675 59.0952 71.3882 58.9848 70.9687 59.1521C69.2716 59.8272 66.8505 60.2947 64.565 60.4076C64.2474 56.2971 62.197 52.4338 58.6916 49.5652H72.8696C73.4699 49.5652 73.9565 49.0786 73.9565 48.4783C73.9565 47.8779 73.4699 47.3913 72.8696 47.3913H55.3522C52.8849 46.1354 50.1144 45.4029 47.2628 45.2492C47.8874 37.9488 54.9412 32.1739 63.5217 32.1739C72.7133 32.1739 80.4783 38.6447 80.4783 46.3043C80.4783 49.6259 79.12 52.8541 76.654 55.394Z" fill="#262728"/>
<path d="M54.8261 58.2609H41.1304C40.5301 58.2609 40.0435 58.7475 40.0435 59.3478C40.0435 59.9482 40.5301 60.4348 41.1304 60.4348H54.8261C55.4265 60.4348 55.913 59.9482 55.913 59.3478C55.913 58.7475 55.4265 58.2609 54.8261 58.2609Z" fill="#262728"/>
<path d="M54.8261 64.7826H36.7826C36.1822 64.7826 35.6957 65.2692 35.6957 65.8696C35.6957 66.4699 36.1822 66.9565 36.7826 66.9565H54.8261C55.4265 66.9565 55.913 66.4699 55.913 65.8696C55.913 65.2692 55.4265 64.7826 54.8261 64.7826Z" fill="#262728"/>
<path d="M72.8696 40.8696H59.1739C58.5735 40.8696 58.087 41.3561 58.087 41.9565C58.087 42.5569 58.5735 43.0435 59.1739 43.0435H72.8696C73.4699 43.0435 73.9565 42.5569 73.9565 41.9565C73.9565 41.3561 73.4699 40.8696 72.8696 40.8696Z" fill="#262728"/>
<circle cx="17" cy="17" r="13" fill="#F7992B" stroke="white" stroke-width="2"/>
<path d="M15.903 11.768C14.783 11.768 13.743 11.832 12.191 12.152L12.287 13.992C13.743 13.864 14.527 13.848 15.615 13.848C16.607 13.848 17.103 13.928 17.119 14.584C17.135 15.368 16.447 16.392 15.151 17.736L12.447 20.648C12.175 20.936 12.095 21.24 12.095 21.64V23H19.919V20.808H16.607C16.079 20.808 15.503 20.824 14.975 20.92L17.807 17.976C19.263 16.424 19.599 15.608 19.599 14.328C19.599 12.232 18.159 11.768 15.903 11.768Z" fill="white"/>
</svg>
