<svg width="110" height="110" viewBox="0 0 110 110" fill="none" xmlns="http://www.w3.org/2000/svg">
<circle opacity="0.1" cx="55" cy="55" r="55" fill="white"/>
<circle cx="55" cy="55" r="50" fill="white"/>
<path d="M40.0233 63.8372C36.9451 63.8372 34.4419 66.3405 34.4419 69.4186C34.4419 72.4968 36.9451 75 40.0233 75C43.1014 75 45.6047 72.4968 45.6047 69.4186C45.6047 66.3405 43.1013 63.8372 40.0233 63.8372ZM40.0233 73.1395C37.9711 73.1395 36.3024 71.4706 36.3024 69.4186C36.3024 67.3665 37.9712 65.6977 40.0233 65.6977C42.0753 65.6977 43.7442 67.3666 43.7442 69.4186C43.7442 71.4706 42.0753 73.1395 40.0233 73.1395Z" fill="#262728"/>
<path d="M71.6511 63.8372C68.5729 63.8372 66.0697 66.3405 66.0697 69.4186C66.0697 72.4968 68.5729 75 71.6511 75C74.7292 75 77.2325 72.4968 77.2325 69.4186C77.2325 66.3405 74.7292 63.8372 71.6511 63.8372ZM71.6511 73.1395C69.5989 73.1395 67.9302 71.4706 67.9302 69.4186C67.9302 67.3665 69.599 65.6977 71.6511 65.6977C73.7032 65.6977 75.372 67.3666 75.372 69.4186C75.372 71.4706 73.7032 73.1395 71.6511 73.1395Z" fill="#262728"/>
<path d="M82.6659 58.6828L74.2938 45.6596C74.1227 45.3935 73.8278 45.2326 73.5115 45.2326H63.279C62.7646 45.2326 62.3488 45.6493 62.3488 46.1628V69.4185C62.3488 69.9329 62.7646 70.3487 63.279 70.3487H66.9999V68.4882H64.2092V47.0931H73.0036L80.9534 59.4595V68.4884H76.3022V70.3488H81.8835C82.398 70.3488 82.8137 69.933 82.8137 69.4186V59.186C82.8139 59.0084 82.7627 58.8325 82.6659 58.6828Z" fill="#262728"/>
<path d="M67.9302 57.3255V50.814H75.3721V48.9535H67C66.4856 48.9535 66.0698 49.3702 66.0698 49.8837V58.2557C66.0698 58.7702 66.4856 59.1859 67 59.1859H80.9535V57.3254H67.9302V57.3255Z" fill="#262728"/>
<path d="M63.279 38.721H27.9302C27.4168 38.721 27 39.1377 27 39.6512V69.4186C27 69.933 27.4168 70.3488 27.9302 70.3488H35.3721V68.4883H28.8605V40.5814H62.3488V68.4883H44.6743V70.3488L63.279 70.3487C63.7934 70.3487 64.2092 69.933 64.2092 69.4186V39.6512C64.2092 39.1377 63.7934 38.721 63.279 38.721Z" fill="#262728"/>
<path d="M33.5116 64.7674H27.9302V66.6279H33.5116V64.7674Z" fill="#262728"/>
<path d="M62.3488 64.7674H46.5348V66.6279H62.3488V64.7674Z" fill="#262728"/>
<path d="M81.8835 64.7674H78.1627V66.6279H81.8835V64.7674Z" fill="#262728"/>
<path d="M63.279 42.4419H30.7209V44.3024H63.279V42.4419Z" fill="#262728"/>
<path d="M40.9535 68.4883H39.093V70.3488H40.9535V68.4883Z" fill="#262728"/>
<path d="M72.5814 68.4883H70.7209V70.3488H72.5814V68.4883Z" fill="#262728"/>
<path d="M43.7442 35H30.7209V36.8605H43.7442V35Z" fill="#262728"/>
<path d="M28.8605 35H27V36.8605H28.8605V35Z" fill="#262728"/>
<circle cx="17" cy="17" r="13" fill="#F7992B" stroke="white" stroke-width="2"/>
<path d="M15.8048 11.752C14.6688 11.752 13.5168 11.848 12.3328 12.04L12.4448 13.8C13.2288 13.768 14.3008 13.736 15.3888 13.736C16.7168 13.736 17.1008 13.88 17.1008 14.952C17.1168 15.816 16.9888 16.424 15.5968 16.424H13.5328V18.088H15.5968C16.9888 18.072 17.2928 18.584 17.2928 19.608C17.2928 20.888 16.7808 21.208 15.2608 21.208C14.2848 21.208 13.5008 21.176 12.2208 21.096L12.1248 22.92C13.3248 23.08 14.6368 23.208 15.9168 23.208C18.7168 23.208 19.7248 22.232 19.6927 19.928C19.6768 18.312 19.2128 17.4 17.7248 17.16V17.096C19.0688 16.872 19.4048 15.832 19.4048 14.312C19.4048 12.36 18.3808 11.752 15.8048 11.752Z" fill="white"/>
</svg>
