<svg width="16" height="16" viewBox="0 0 16 16" fill="none" xmlns="http://www.w3.org/2000/svg">
<path d="M15.396 0.604265C14.9932 0.201361 14.5105 0 13.9481 0H2.05217C1.48965 0 1.0071 0.201434 0.604192 0.604265C0.201361 1.00699 0 1.48961 0 2.05203V13.9479C0 14.5102 0.201324 14.9929 0.604192 15.3957C1.0071 15.7985 1.48976 16 2.05217 16H13.948C14.5102 16 14.993 15.7985 15.3958 15.3957C15.7987 14.9929 15.9999 14.5102 15.9999 13.9479V2.05203C15.9999 1.4895 15.7987 1.00713 15.396 0.604265ZM5.74497 5.76555C6.37339 5.158 7.12863 4.85408 8.01058 4.85408C8.89936 4.85408 9.65799 5.158 10.2866 5.76555C10.9151 6.37321 11.2292 7.10765 11.2292 7.96873C11.2292 8.82971 10.9151 9.56419 10.2866 10.1717C9.65799 10.7795 8.89961 11.0834 8.01058 11.0834C7.12866 11.0834 6.3735 10.7792 5.74497 10.1717C5.11641 9.56411 4.80216 8.82971 4.80216 7.96873C4.80216 7.10765 5.11641 6.37324 5.74497 5.76555ZM14.1877 13.521C14.1877 13.7014 14.125 13.8523 14.0001 13.9739C13.8749 14.0954 13.7258 14.1562 13.552 14.1562H2.4168C2.23628 14.1562 2.08512 14.0954 1.9637 13.9739C1.84209 13.8526 1.78135 13.7014 1.78135 13.521V6.77071H3.25005C3.11122 7.20827 3.04179 7.66321 3.04179 8.13532C3.04179 9.46896 3.52785 10.6059 4.50006 11.5471C5.47239 12.4879 6.6425 12.9585 8.01054 12.9585C8.91333 12.9585 9.74661 12.7431 10.5108 12.3126C11.2746 11.8818 11.8784 11.2969 12.3232 10.5572C12.7677 9.81761 12.9899 9.01027 12.9899 8.13536C12.9899 7.66324 12.9202 7.20842 12.7814 6.77075H14.1878L14.1877 13.521ZM14.1877 4.21862C14.1877 4.42002 14.1183 4.59018 13.9792 4.72904C13.8403 4.86801 13.6703 4.93741 13.4688 4.93741H11.6563C11.4551 4.93741 11.2847 4.86798 11.1459 4.72904C11.0071 4.59018 10.9377 4.42002 10.9377 4.21862V2.50003C10.9377 2.30556 11.0071 2.13718 11.1459 1.99478C11.2848 1.85245 11.4551 1.7812 11.6563 1.7812H13.4688C13.6703 1.7812 13.8404 1.85242 13.9792 1.99478C14.1182 2.13718 14.1877 2.30556 14.1877 2.50003V4.21862Z" fill="white"/>
</svg>
