<svg width="26" height="26" viewBox="0 0 26 26" fill="none" xmlns="http://www.w3.org/2000/svg">
<circle cx="13" cy="13" r="13" fill="#F7992B"/>
<path d="M12.7946 5C9.59944 5 7 7.59944 7 10.7946C7 14.7598 12.1856 20.581 12.4064 20.8269C12.6138 21.0579 12.9758 21.0575 13.1828 20.8269C13.4036 20.581 18.5892 14.7598 18.5892 10.7946C18.5891 7.59944 15.9897 5 12.7946 5ZM12.7946 13.71C11.187 13.71 9.87922 12.4021 9.87922 10.7946C9.87922 9.187 11.1871 7.87919 12.7946 7.87919C14.4021 7.87919 15.7099 9.18704 15.7099 10.7946C15.7099 12.4022 14.4021 13.71 12.7946 13.71Z" fill="white"/>
</svg>
