<svg width="26" height="26" viewBox="0 0 26 26" fill="none" xmlns="http://www.w3.org/2000/svg">
<circle cx="13" cy="13" r="13" fill="#F7992B"/>
<path d="M21 17.125C21 15.286 19.7185 13.7472 18 13.3504C17.7186 13.2855 17.4261 13.25 17.125 13.25C17.0409 13.25 16.9578 13.2536 16.875 13.2589C14.9971 13.3786 13.4835 14.8351 13.2753 16.6875C13.2591 16.8311 13.25 16.977 13.25 17.125C13.25 17.4037 13.2801 17.6754 13.336 17.9375C13.7095 19.6874 15.2636 21 17.125 21C19.2651 21 21 19.2651 21 17.125ZM17.125 19.6875C15.7098 19.6875 14.5625 18.5402 14.5625 17.125C14.5625 15.7098 15.7098 14.5625 17.125 14.5625C18.5402 14.5625 19.6875 15.7098 19.6875 17.125C19.6875 18.5402 18.5402 19.6875 17.125 19.6875Z" fill="white"/>
<path d="M17.625 15.375H16.75V16.75H15.375V17.625H17.625V15.375Z" fill="white"/>
<path d="M7.87501 5C7.63375 5 7.43752 5.19626 7.43752 5.43749V7.5C7.43752 7.74125 7.63375 7.93749 7.87501 7.93749H8.25001C8.49127 7.93749 8.6875 7.74123 8.6875 7.5V5.43749C8.6875 5.19626 8.49127 5 8.24999 5H7.87501Z" fill="white"/>
<path d="M14.75 5C14.5088 5 14.3125 5.19626 14.3125 5.43749V7.5C14.3125 7.74125 14.5088 7.93749 14.75 7.93749H15.125C15.3663 7.93749 15.5625 7.74123 15.5625 7.5V5.43749C15.5625 5.19626 15.3662 5 15.125 5H14.75Z" fill="white"/>
<path d="M6 17.9375H12.1875C12.1265 17.6342 12.0941 17.3209 12.0941 17C12.0941 16.8949 12.0987 16.7909 12.1055 16.6875H6.87501C6.46076 16.6875 6.12499 16.3517 6.12499 15.9375V9.93749H16.875V12.2566C16.9578 12.2524 17.0411 12.25 17.125 12.25C17.424 12.25 17.7161 12.279 18 12.3321V7.43749C18 6.88523 17.5523 6.43749 17 6.43749H16.1875V7.5C16.1875 8.08588 15.7109 8.56251 15.125 8.56251H14.75C14.1641 8.56251 13.6875 8.08588 13.6875 7.5V6.43749H9.3125V7.5C9.3125 8.08588 8.83587 8.56251 8.24999 8.56251H7.87498C7.2891 8.56251 6.81247 8.08588 6.81247 7.5V6.43749H6C5.44774 6.43749 5 6.88525 5 7.43749V16.9375C5 17.4898 5.44774 17.9375 6 17.9375Z" fill="white"/>
<path d="M8.5235 12.8048C9.07151 12.8048 9.51576 12.3605 9.51576 11.8125C9.51576 11.2645 9.07151 10.8202 8.5235 10.8202C7.97549 10.8202 7.53124 11.2645 7.53124 11.8125C7.53124 12.3605 7.97549 12.8048 8.5235 12.8048Z" fill="white"/>
<path d="M11.5 12.8048C12.048 12.8048 12.4923 12.3605 12.4923 11.8125C12.4923 11.2645 12.048 10.8202 11.5 10.8202C10.952 10.8202 10.5077 11.2645 10.5077 11.8125C10.5077 12.3605 10.952 12.8048 11.5 12.8048Z" fill="white"/>
<path d="M14.4765 12.8048C15.0245 12.8048 15.4688 12.3605 15.4688 11.8125C15.4688 11.2645 15.0245 10.8202 14.4765 10.8202C13.9285 10.8202 13.4843 11.2645 13.4843 11.8125C13.4843 12.3605 13.9285 12.8048 14.4765 12.8048Z" fill="white"/>
<path d="M11.5 15.8047C12.048 15.8047 12.4922 15.3605 12.4922 14.8125C12.4922 14.2645 12.048 13.8203 11.5 13.8203C10.952 13.8203 10.5078 14.2645 10.5078 14.8125C10.5078 15.3605 10.952 15.8047 11.5 15.8047Z" fill="white"/>
<path d="M8.5235 15.8047C9.0715 15.8047 9.51574 15.3605 9.51574 14.8125C9.51574 14.2645 9.0715 13.8203 8.5235 13.8203C7.97551 13.8203 7.53127 14.2645 7.53127 14.8125C7.53127 15.3605 7.97551 15.8047 8.5235 15.8047Z" fill="white"/>
</svg>
