<svg width="26" height="26" viewBox="0 0 26 26" fill="none" xmlns="http://www.w3.org/2000/svg">
<circle cx="13" cy="13" r="13" fill="#F7992B"/>
<path d="M17.1641 15.5843C16.6414 15.0682 15.9888 15.0682 15.4694 15.5843C15.0732 15.9772 14.677 16.3701 14.2874 16.7696C14.1809 16.8795 14.091 16.9028 13.9611 16.8295C13.7048 16.6897 13.4318 16.5765 13.1854 16.4233C12.0367 15.7008 11.0745 14.7719 10.2222 13.7265C9.79934 13.2071 9.42311 12.6511 9.16009 12.0251C9.10682 11.8986 9.1168 11.8154 9.22002 11.7122C9.61622 11.3293 10.0024 10.9364 10.392 10.5435C10.9347 9.9975 10.9347 9.35825 10.3887 8.80889C10.079 8.49592 9.76938 8.18961 9.45974 7.87664C9.14011 7.55702 8.82381 7.23406 8.50086 6.91776C7.97813 6.40836 7.32556 6.40836 6.80617 6.92109C6.40663 7.31397 6.02375 7.71683 5.61755 8.10304C5.24133 8.4593 5.05155 8.89545 5.0116 9.40486C4.94834 10.2339 5.15143 11.0163 5.43776 11.7788C6.02375 13.3569 6.91604 14.7586 7.99811 16.0438C9.45974 17.7817 11.2044 19.1568 13.2453 20.149C14.1642 20.5951 15.1165 20.9381 16.1519 20.9947C16.8644 21.0346 17.4837 20.8548 17.9798 20.2988C18.3194 19.9193 18.7023 19.573 19.0619 19.2101C19.5946 18.6707 19.5979 18.0181 19.0685 17.4854C18.4359 16.8495 17.8 16.2169 17.1641 15.5843Z" fill="white"/>
<path d="M16.5282 12.9307L17.7567 12.721C17.5636 11.5923 17.0309 10.5702 16.2218 9.75778C15.3662 8.90211 14.2841 8.36274 13.0922 8.19627L12.919 9.43149C13.8413 9.56134 14.6803 9.97752 15.3429 10.6401C15.9688 11.266 16.3783 12.0584 16.5282 12.9307Z" fill="white"/>
<path d="M18.4492 7.59031C17.0309 6.17197 15.2363 5.27634 13.2553 5L13.0822 6.23522C14.7935 6.47495 16.345 7.25071 17.5703 8.47261C18.7322 9.63459 19.4947 11.1029 19.771 12.7177L20.9996 12.5079C20.6766 10.6368 19.7943 8.93874 18.4492 7.59031Z" fill="white"/>
</svg>
