<svg width="40" height="26" viewBox="0 0 40 26" fill="none" xmlns="http://www.w3.org/2000/svg">
<path d="M27.0022 22.2392V18.7369H3.32016V21.0222C3.32016 21.7101 3.87786 22.2678 4.56574 22.2678H7.23026C7.23019 22.2776 7.22949 22.2873 7.22949 22.297C7.22949 24.3388 8.89065 26 10.9325 26C12.9743 26 14.6354 24.3388 14.6354 22.297C14.6354 22.284 14.6346 22.2712 14.6344 22.2583L26.9992 22.2393L27.0022 22.2392ZM10.9325 23.5264C10.2442 23.5264 9.68611 22.9684 9.68611 22.28C9.68611 21.5916 10.2441 21.0335 10.9325 21.0335C11.621 21.0335 12.179 21.5915 12.179 22.28C12.179 22.9684 11.6209 23.5264 10.9325 23.5264Z" fill="#F7992B"/>
<path d="M0.817845 16.3622H27.0022V1.4334C27.0022 1.43086 27.0026 1.4284 27.0026 1.42586V0.905332C27.0026 0.405345 26.5972 0 26.0973 0H0.905331C0.405345 7.69447e-05 0 0.405422 0 0.905409V15.4613C0 15.9317 0.35887 16.3181 0.817845 16.3622ZM20.6461 4.81481C20.6461 4.13647 21.196 3.58655 21.8744 3.58655C22.5527 3.58655 23.1026 4.13647 23.1026 4.81481V11.5264C23.1026 12.2047 22.5527 12.7547 21.8744 12.7547C21.196 12.7547 20.6461 12.2047 20.6461 11.5264V4.81481ZM15.0218 4.72094C15.0218 4.0426 15.5717 3.49267 16.25 3.49267C16.9284 3.49267 17.4783 4.0426 17.4783 4.72094V11.4326C17.4783 12.1109 16.9284 12.6609 16.25 12.6609C15.5717 12.6609 15.0218 12.1109 15.0218 11.4326V4.72094ZM9.39749 4.86175C9.39749 4.18341 9.94741 3.63348 10.6258 3.63348C11.3041 3.63348 11.854 4.18341 11.854 4.86175V11.5733C11.854 12.2517 11.3041 12.8016 10.6258 12.8016C9.94741 12.8016 9.39749 12.2517 9.39749 11.5733V4.86175ZM3.77321 4.88507C3.77321 4.20672 4.32314 3.6568 5.00148 3.6568C5.67983 3.6568 6.22975 4.20672 6.22975 4.88507V11.5967C6.22975 12.2751 5.67983 12.825 5.00148 12.825C4.32314 12.825 3.77321 12.2751 3.77321 11.5967V4.88507Z" fill="#F7992B"/>
<path d="M39.3083 12.5207H33.7386C32.7638 12.5207 31.9708 11.6561 31.9708 10.5934V7.28382C31.9708 6.29108 32.7199 5.48346 33.6406 5.48346H36.1372L35.3831 3.81161C35.0912 3.16451 34.4472 2.74854 33.7374 2.74854H29.3769V22.2391H30.3597C30.3594 22.2584 30.3582 22.2776 30.3582 22.297C30.3582 24.3388 32.0194 25.9999 34.0612 25.9999C36.103 25.9999 37.7642 24.3388 37.7642 22.297C37.7642 22.2776 37.763 22.2585 37.7627 22.2391H38.1596C38.8423 22.2391 39.3957 21.6856 39.3957 21.003V12.9756C39.3957 12.8177 39.3664 12.6672 39.3083 12.5207ZM34.0611 23.5141C33.3728 23.5141 32.8147 22.9561 32.8147 22.2677C32.8147 21.5794 33.3727 21.0213 34.0611 21.0213C34.7495 21.0213 35.3075 21.5793 35.3075 22.2677C35.3075 22.9561 34.7495 23.5141 34.0611 23.5141Z" fill="#F7992B"/>
<path d="M34.4274 10.0642H38.2035L37.2453 7.94008H34.4274V10.0642Z" fill="#F7992B"/>
</svg>
