<svg width="22" height="12" viewBox="0 0 22 12" fill="none" xmlns="http://www.w3.org/2000/svg">
<path d="M20.921 10.8373C20.8955 10.7824 20.8718 10.7369 20.8498 10.7004C20.4848 10.0432 19.7875 9.23652 18.7582 8.28012L18.7364 8.25822L18.7255 8.24748L18.7145 8.23647H18.7035C18.2363 7.79113 17.9405 7.49169 17.8166 7.33838C17.5899 7.04634 17.5391 6.75074 17.663 6.45122C17.7505 6.22492 18.0793 5.74701 18.6486 5.01684C18.948 4.62987 19.1852 4.31973 19.3603 4.08607C20.6234 2.40687 21.171 1.33383 21.003 0.86655L20.9377 0.757352C20.8939 0.691611 20.7808 0.63147 20.5984 0.576621C20.4157 0.521888 20.1822 0.512837 19.8974 0.549313L16.7437 0.571098C16.6926 0.552994 16.6196 0.554682 16.5246 0.576621C16.4296 0.598561 16.3822 0.609569 16.3822 0.609569L16.3273 0.636993L16.2837 0.66994C16.2472 0.691726 16.207 0.730043 16.1632 0.784815C16.1196 0.839395 16.0831 0.903448 16.0539 0.976438C15.7106 1.8598 15.3202 2.68111 14.8821 3.44032C14.6119 3.89303 14.3638 4.28536 14.1373 4.61756C13.911 4.94964 13.7212 5.19431 13.568 5.35115C13.4146 5.50813 13.2761 5.6339 13.1518 5.72891C13.0276 5.82395 12.9328 5.86411 12.8672 5.84942C12.8014 5.83473 12.7395 5.82016 12.6809 5.80558C12.5787 5.73984 12.4966 5.65043 12.4346 5.53728C12.3724 5.42414 12.3305 5.28172 12.3086 5.11016C12.2868 4.93848 12.2739 4.79081 12.2703 4.66666C12.2668 4.54265 12.2684 4.36725 12.2758 4.14095C12.2834 3.91454 12.2868 3.76135 12.2868 3.68104C12.2868 3.40357 12.2922 3.10244 12.3031 2.77757C12.3141 2.4527 12.3231 2.1953 12.3305 2.00567C12.338 1.81585 12.3414 1.61502 12.3414 1.4033C12.3414 1.19157 12.3286 1.02553 12.3031 0.905021C12.2779 0.784661 12.2393 0.667831 12.1884 0.554567C12.1372 0.441418 12.0623 0.353891 11.9639 0.291756C11.8654 0.229696 11.7429 0.180448 11.5971 0.143857C11.2101 0.0562913 10.7174 0.00892239 10.1186 0.00155814C8.76077 -0.0130169 7.8883 0.0746635 7.50137 0.264485C7.34806 0.344686 7.20933 0.454267 7.08529 0.592884C6.95384 0.753555 6.93551 0.841236 7.0304 0.855658C7.4685 0.921284 7.77864 1.07827 7.96117 1.32647L8.02695 1.45799C8.07812 1.55288 8.12921 1.72088 8.18034 1.96175C8.23139 2.20262 8.26433 2.46908 8.27883 2.76096C8.31527 3.29399 8.31527 3.75027 8.27883 4.12983C8.24228 4.50955 8.20776 4.80516 8.17481 5.01688C8.14186 5.2286 8.09262 5.40016 8.02695 5.53153C7.96117 5.66294 7.91741 5.74325 7.89547 5.7724C7.87357 5.80155 7.85531 5.81993 7.84081 5.82714C7.74592 5.8635 7.64723 5.88202 7.54509 5.88202C7.4428 5.88202 7.31876 5.83086 7.17278 5.7286C7.02683 5.62635 6.87537 5.48589 6.71838 5.307C6.56139 5.12807 6.38434 4.87803 6.18716 4.55684C5.99012 4.23565 5.78569 3.85605 5.57397 3.41803L5.3988 3.10037C5.28929 2.89601 5.13971 2.59845 4.94989 2.20796C4.75995 1.8173 4.59207 1.43943 4.44613 1.0744C4.38779 0.921091 4.30014 0.804376 4.18335 0.72406L4.12854 0.691112C4.0921 0.661962 4.03361 0.631009 3.95337 0.598024C3.87302 0.565076 3.78917 0.541449 3.70149 0.526912L0.700984 0.548699C0.394371 0.548699 0.186331 0.61816 0.0767876 0.756892L0.0329473 0.822518C0.0110464 0.859071 0 0.917448 0 0.997803C0 1.07812 0.021901 1.17669 0.0657412 1.29341C0.503761 2.32287 0.980097 3.3157 1.49475 4.27205C2.0094 5.22841 2.45663 5.99878 2.83616 6.58247C3.21576 7.16659 3.60269 7.71787 3.99694 8.23605C4.3912 8.75443 4.65217 9.08662 4.77986 9.23256C4.9077 9.37878 5.00811 9.48809 5.0811 9.56108L5.35492 9.82385C5.53013 9.9991 5.78742 10.209 6.1269 10.4535C6.46646 10.6982 6.84238 10.939 7.25486 11.1765C7.66741 11.4136 8.14735 11.607 8.69495 11.7567C9.24247 11.9064 9.77538 11.9665 10.2938 11.9375H11.5531C11.8085 11.9155 12.002 11.8352 12.1336 11.6966L12.1771 11.6417C12.2064 11.5981 12.2339 11.5304 12.2592 11.4393C12.2848 11.3481 12.2975 11.2475 12.2975 11.1382C12.29 10.8243 12.3139 10.5414 12.3686 10.2896C12.4231 10.0378 12.4854 9.84802 12.5549 9.72018C12.6245 9.59245 12.7029 9.48467 12.7903 9.3973C12.8778 9.30974 12.9402 9.25669 12.9768 9.23843C13.0131 9.22006 13.0422 9.20759 13.0641 9.20012C13.2393 9.14174 13.4455 9.19827 13.683 9.36999C13.9203 9.54156 14.1428 9.75339 14.351 10.0052C14.5591 10.2572 14.8091 10.5399 15.1011 10.8537C15.3932 11.1677 15.6487 11.4011 15.8676 11.5546L16.0865 11.686C16.2328 11.7737 16.4226 11.854 16.6562 11.927C16.8895 12 17.0938 12.0182 17.2693 11.9818L20.0726 11.938C20.3499 11.938 20.5656 11.8921 20.7187 11.801C20.872 11.7098 20.9631 11.6093 20.9925 11.4999C21.0218 11.3904 21.0234 11.2662 20.998 11.1274C20.9721 10.9889 20.9465 10.8921 20.921 10.8373Z" fill="white"/>
</svg>
