<svg width="34" height="22" viewBox="0 0 34 22" fill="none" xmlns="http://www.w3.org/2000/svg">
<path d="M22.848 18.8178V15.8543H2.80937V17.788C2.80937 18.3701 3.28127 18.842 3.86332 18.842H6.11791C6.11785 18.8503 6.11726 18.8585 6.11726 18.8667C6.11726 20.5944 7.52286 22 9.25054 22C10.9782 22 12.3838 20.5944 12.3838 18.8667C12.3838 18.8557 12.3831 18.8448 12.383 18.8339L22.8455 18.8178L22.848 18.8178ZM9.25061 19.9069C8.66816 19.9069 8.19594 19.4348 8.19594 18.8523C8.19594 18.2698 8.66809 17.7976 9.25061 17.7976C9.83312 17.7976 10.3053 18.2698 10.3053 18.8523C10.3053 19.4348 9.83305 19.9069 9.25061 19.9069Z" fill="white"/>
<path d="M0.692023 13.845H22.848V1.21288C22.848 1.21073 22.8483 1.20865 22.8483 1.2065V0.76605C22.8483 0.342984 22.5054 0 22.0823 0H0.76605C0.342984 6.51071e-05 0 0.343049 0 0.766115V13.0826C0 13.4807 0.303659 13.8076 0.692023 13.845ZM17.4698 4.07407C17.4698 3.50009 17.9351 3.03477 18.5091 3.03477C19.0831 3.03477 19.5484 3.50009 19.5484 4.07407V9.7531C19.5484 10.3271 19.0831 10.7924 18.5091 10.7924C17.9351 10.7924 17.4698 10.3271 17.4698 9.7531V4.07407ZM12.7107 3.99464C12.7107 3.42066 13.176 2.95534 13.75 2.95534C14.324 2.95534 14.7893 3.42066 14.7893 3.99464V9.67374C14.7893 10.2477 14.324 10.713 13.75 10.713C13.176 10.713 12.7107 10.2477 12.7107 9.67374V3.99464ZM7.95172 4.11379C7.95172 3.53981 8.41704 3.07449 8.99102 3.07449C9.56501 3.07449 10.0303 3.53981 10.0303 4.11379V9.79282C10.0303 10.3668 9.56501 10.8321 8.99102 10.8321C8.41704 10.8321 7.95172 10.3668 7.95172 9.79282V4.11379ZM3.19272 4.13352C3.19272 3.55953 3.65804 3.09421 4.23202 3.09421C4.80601 3.09421 5.27133 3.55953 5.27133 4.13352V9.81261C5.27133 10.3866 4.80601 10.8519 4.23202 10.8519C3.65804 10.8519 3.19272 10.3866 3.19272 9.81261V4.13352Z" fill="white"/>
<path d="M33.2609 10.5945H28.548C27.7232 10.5945 27.0522 9.86287 27.0522 8.96368V6.16323C27.0522 5.32322 27.6861 4.63985 28.4651 4.63985H30.5777L29.9395 3.22521C29.6926 2.67766 29.1476 2.32569 28.547 2.32569H24.8574V18.8177H25.689C25.6887 18.834 25.6877 18.8503 25.6877 18.8667C25.6877 20.5943 27.0933 21.9999 28.821 21.9999C30.5487 21.9999 31.9543 20.5943 31.9543 18.8667C31.9543 18.8503 31.9533 18.8341 31.953 18.8177H32.2889C32.8666 18.8177 33.3348 18.3494 33.3348 17.7718V10.9793C33.3348 10.8457 33.31 10.7184 33.2609 10.5945ZM28.8209 19.8966C28.2385 19.8966 27.7663 19.4244 27.7663 18.8419C27.7663 18.2595 28.2384 17.7872 28.8209 17.7872C29.4034 17.7872 29.8756 18.2594 29.8756 18.8419C29.8756 19.4244 29.4035 19.8966 28.8209 19.8966Z" fill="white"/>
<path d="M29.1309 8.51587H32.326L31.5153 6.71853H29.1309V8.51587Z" fill="white"/>
</svg>
